<svg id="Layer_1" data-name="Layer 1" xmlns="http://www.w3.org/2000/svg" viewBox="0 0 867.29 865.95"><defs><style>.cls-1{fill:#fff;}.cls-2,.cls-3,.cls-4,.cls-5,.cls-6,.cls-7,.cls-8,.cls-9{isolation:isolate;}.cls-2{font-size:79.39px;}.cls-2,.cls-3,.cls-4,.cls-5,.cls-6,.cls-7,.cls-8{fill:#010101;font-family:NirmalaUI-Bold, Nirmala UI;font-weight:700;}.cls-3{font-size:80.04px;}.cls-4{font-size:79.29px;}.cls-5{font-size:83.43px;}.cls-6{font-size:81.06px;}.cls-7{font-size:81.44px;}.cls-8{font-size:81.82px;}.cls-10{font-size:22.46px;letter-spacing:-0.01em;}.cls-10,.cls-12{fill:#030303;font-family:MyriadPro-Regular, Myriad Pro;}.cls-11{letter-spacing:0em;}.cls-12{font-size:28.27px;}.cls-13{letter-spacing:-0.03em;}.cls-14{letter-spacing:-0.01em;}</style></defs><path class="cls-1" d="M51.55,1.2,811.26-.9a52.7,52.7,0,0,1,52.89,52.51l2.1,758.52a52.7,52.7,0,0,1-52.6,52.81L53.94,865A52.7,52.7,0,0,1,1.05,812.53L-1,54A52.7,52.7,0,0,1,51.55,1.2Z" transform="translate(1.05 0.9)"/><text class="cls-2" transform="translate(450.69 452.52) scale(0.88 1)">R</text><text class="cls-2" transform="translate(402.04 452.72) scale(0.88 1)">A</text><text class="cls-3" transform="translate(378.78 452.62) scale(0.87 1)">I</text><text class="cls-3" transform="translate(341.24 452.62) scale(0.87 1)">L</text><text class="cls-4" transform="translate(372.54 390.64) scale(0.78 1)">O</text><text class="cls-4" transform="translate(417.52 390.74) scale(0.78 1)">R</text><text class="cls-5" transform="translate(320.05 330.54) scale(0.76 1)">E</text><text class="cls-5" transform="translate(354.75 330.54) scale(0.76 1)">X</text><text class="cls-5" transform="translate(395.91 330.54) scale(0.76 1)">P</text><text class="cls-6" transform="translate(501 331.4) scale(0.78 1)">T</text><text class="cls-7" transform="translate(462.95 331.26) scale(0.78 1)">R</text><text class="cls-8" transform="translate(431.36 331.12) scale(0.77 1)">E</text><text class="cls-9" x="1.05" y="0.9"/><text class="cls-10" transform="translate(412.28 586.7) scale(0.82 1)">b<tspan class="cls-11" x="12.62" y="0">y</tspan></text><text class="cls-12" transform="translate(337.28 631.84) scale(0.92 1)">&lt;/<tspan class="cls-13" x="26.54" y="0">F</tspan><tspan class="cls-14" x="39.57" y="0">r</tspan><tspan x="48.53" y="0">edthedev&gt;</tspan></text></svg>